<svg xmlns="http://www.w3.org/2000/svg" version="1.1" baseProfile="full" viewBox="0 0 1 1" width="300px" height="300px">
  <path d="M 0.5 0 L 0.3383590556195699 0.2775203265468894 L 0.024471741852423234 0.3454915028125263 L 0.23845945801883273 0.5849796734531105 L 0.20610737385376338 0.9045084971874737 L 0.49999999999999994 0.775 L 0.7938926261462365 0.9045084971874737 L 0.7615405419811672 0.5849796734531105 L 0.9755282581475768 0.3454915028125264 L 0.6616409443804302 0.2775203265468895" fill="brown"></path>
  <path d="M 0.5 0.025000000000000022 L 0.36040100258053764 0.30785846383595 L 0.0482481547598021 0.35321692767189994 L 0.274124077379901 0.57339153616405 L 0.22080200516107523 0.8842830723281 L 0.49999999999999994 0.7375 L 0.7791979948389247 0.8842830723281 L 0.7258759226200989 0.57339153616405 L 0.951751845240198 0.35321692767190005 L 0.6395989974194625 0.30785846383595006" fill="orange"></path>
  <path d="M 0.5 0.04999999999999999 L 0.3836185200460903 0.3398146351137604 L 0.0720245676671809 0.3609423525312736 L 0.31169080977355956 0.5611853648862396 L 0.23549663646838703 0.8640576474687264 L 0.5 0.698 L 0.7645033635316129 0.8640576474687264 L 0.6883091902264404 0.5611853648862396 L 0.9279754323328191 0.3609423525312737 L 0.6163814799539097 0.3398146351137604" fill="yellow"></path>
  <path d="M 0.3530536869268817 0.29774575140626314 L 0.3692297290094164 0.45751016327344474 L 0.2622358709262116 0.5772542485937369 L 0.4191795278097849 0.6112398367265552 L 0.49999999999999994 0.75 L 0.580820472190215 0.6112398367265552 L 0.7377641290737884 0.5772542485937369 L 0.6307702709905836 0.45751016327344474 L 0.6469463130731183 0.2977457514062632 L 0.5 0.3625" fill="brown"></path>
  <path d="M 0.3677483182341935 0.3179711762656368 L 0.3930061419167952 0.4652355881328184 L 0.28601228383359045 0.5695288237343632 L 0.43387415911709676 0.5910144118671816 L 0.5 0.725 L 0.5661258408829032 0.5910144118671816 L 0.7139877161664095 0.5695288237343632 L 0.6069938580832048 0.46523558813281846 L 0.6322516817658065 0.31797117626563687 L 0.5 0.3875" fill="orange"></path>
  <path d="M 0.3824429495415054 0.3381966011250105 L 0.4163070265660265 0.4728065044950046 L 0.30978869674096926 0.5618033988749894 L 0.44827489779826235 0.5711934955049954 L 0.5 0.7 L 0.5517251022017376 0.5711934955049954 L 0.6902113032590307 0.5618033988749895 L 0.5836929734339735 0.47280650449500466 L 0.6175570504584946 0.33819660112501054 L 0.5 0.412" fill="yellow"></path>
</svg>
